<?xml version="1.0" standalone="no"?>
<!DOCTYPE svg PUBLIC "-//W3C//DTD SVG 20010904//EN"
 "http://www.w3.org/TR/2001/REC-SVG-20010904/DTD/svg10.dtd">
<svg version="1.0" xmlns="http://www.w3.org/2000/svg"
 width="953.000000pt" height="1280.000000pt" viewBox="0 0 953.000000 1280.000000"
 preserveAspectRatio="xMidYMid meet">
<metadata>
Created by potrace 1.15, written by Peter Selinger 2001-2017
</metadata>
<g transform="translate(0.000000,1280.000000) scale(0.100000,-0.100000)"
fill="#000000" stroke="none">
<path d="M1650 12019 c0 -22 7 -118 15 -212 8 -95 24 -287 35 -427 l21 -255
30 -25 c19 -16 32 -38 35 -61 7 -44 13 -42 -177 -65 -161 -20 -527 -14 -679
10 -154 25 -133 33 -341 -132 -102 -81 -201 -159 -219 -173 -23 -17 -32 -31
-27 -42 3 -9 66 -46 139 -83 73 -36 134 -67 136 -69 2 -1 -31 -60 -73 -131
-41 -71 -75 -136 -75 -145 0 -11 43 -38 130 -83 71 -37 130 -69 130 -71 0 -3
-30 -65 -67 -138 -36 -74 -64 -141 -61 -149 5 -11 71 -23 281 -48 l275 -34 64
60 c167 156 409 310 633 403 l79 33 28 -33 c39 -47 218 -588 278 -843 l21 -88
-27 -53 c-24 -45 -26 -55 -15 -69 8 -9 20 -15 29 -14 10 2 16 -7 19 -27 6 -45
30 -75 58 -75 30 0 33 -15 5 -30 -46 -25 -8 -140 41 -124 14 4 28 -18 29 -47
0 -3 -25 -11 -55 -18 -45 -10 -58 -18 -70 -41 -8 -16 -15 -35 -15 -43 0 -7
-14 -35 -31 -61 -27 -40 -31 -52 -25 -88 4 -23 20 -65 36 -93 20 -35 26 -55
20 -65 -6 -8 -10 -25 -10 -38 0 -12 -9 -40 -19 -60 -11 -21 -25 -65 -32 -98
-10 -50 -10 -67 4 -114 16 -54 16 -56 -7 -90 -13 -20 -52 -94 -86 -165 l-63
-130 0 -142 c1 -123 3 -146 20 -170 11 -15 25 -48 32 -73 19 -66 44 -101 106
-151 30 -24 55 -51 55 -61 0 -9 5 -20 10 -23 6 -3 18 -21 27 -38 16 -31 21
-49 46 -152 11 -43 21 -57 80 -106 83 -70 128 -84 239 -76 68 6 86 11 115 34
59 47 157 113 169 113 6 0 19 -28 29 -62 9 -35 73 -259 141 -499 68 -240 124
-444 124 -453 0 -10 -7 -31 -16 -49 -10 -17 -20 -66 -25 -108 -8 -78 -36 -185
-63 -238 -9 -16 -21 -62 -27 -103 -7 -40 -23 -93 -35 -118 -13 -25 -28 -76
-34 -114 -6 -37 -22 -107 -36 -155 -18 -59 -24 -99 -20 -128 4 -27 0 -52 -9
-70 -8 -15 -15 -34 -15 -41 0 -7 -12 -35 -26 -63 -26 -53 -40 -117 -49 -229
-10 -115 -15 -140 -39 -188 -14 -26 -39 -93 -57 -148 -28 -89 -31 -110 -26
-175 6 -74 -3 -129 -39 -240 -8 -26 -14 -66 -13 -90 1 -24 -4 -57 -10 -72 -21
-54 -38 -163 -34 -217 3 -33 -6 -121 -21 -221 -14 -91 -26 -196 -26 -233 0
-86 24 -158 59 -175 14 -7 79 -15 144 -18 168 -7 231 9 426 109 86 45 187 94
224 109 38 16 86 42 108 60 21 17 39 27 39 22 -1 -4 -5 -28 -11 -53 -21 -100
-38 -226 -33 -247 4 -13 1 -44 -5 -70 -5 -27 -13 -79 -16 -118 -3 -38 -8 -85
-10 -103 -10 -69 45 -127 131 -137 29 -4 54 -11 54 -15 0 -13 -202 -160 -230
-167 -107 -27 -555 -308 -860 -539 -338 -257 -443 -391 -340 -434 40 -16 568
-8 880 14 419 30 667 37 1049 32 211 -3 384 -6 386 -8 3 -3 170 -311 238 -438
49 -93 54 -98 71 -80 11 13 11 52 0 245 -7 127 -13 240 -13 252 -1 21 2 22
154 25 125 2 158 6 165 18 16 24 29 78 47 185 14 86 14 118 4 236 -6 74 -21
185 -31 245 -24 131 -24 134 -5 134 24 0 35 33 46 142 16 158 3 329 -51 623
-12 64 -20 118 -18 120 7 7 174 -163 215 -217 l21 -29 22 23 c43 45 46 51 120
253 18 49 19 50 77 63 32 7 119 17 192 22 140 8 142 9 171 60 5 8 11 13 14 10
2 -3 21 -67 40 -143 32 -126 42 -178 78 -402 8 -51 13 -179 12 -355 0 -241 -3
-291 -23 -405 -31 -176 -69 -316 -92 -341 -16 -17 -24 -54 -39 -179 -11 -86
-18 -160 -15 -164 2 -4 -4 -34 -14 -67 -17 -55 -26 -137 -23 -210 l2 -31 143
-41 c476 -138 909 -147 1320 -27 176 51 395 149 595 268 99 59 119 77 86 77
-14 0 -15 9 -8 68 12 99 7 138 -26 218 -16 40 -35 96 -41 126 -6 29 -17 67
-24 83 -7 17 -16 51 -20 76 -6 38 -4 47 10 53 12 4 15 13 11 29 -3 12 -11 67
-16 122 -6 55 -19 129 -30 165 -10 36 -22 96 -25 134 -5 49 -17 87 -41 135
-29 56 -34 77 -34 133 0 42 4 68 12 70 14 5 -85 387 -110 426 -8 12 -21 48
-28 78 -12 53 -11 56 12 79 17 17 47 28 106 40 165 34 325 98 448 180 133 89
262 252 301 383 7 23 16 42 21 42 11 0 0 40 -17 60 -7 8 -20 38 -29 67 -23 68
-82 153 -171 240 -39 39 -85 93 -100 120 -15 26 -38 59 -50 73 -12 14 -45 59
-75 100 -29 41 -121 143 -204 225 -106 104 -159 165 -175 199 -13 27 -43 76
-67 110 -24 34 -56 85 -71 113 -24 47 -26 56 -15 86 7 18 12 44 12 58 0 13 6
55 14 92 14 68 8 175 -13 215 -14 29 -21 182 -8 182 31 0 88 -23 97 -38 14
-25 30 2 23 42 -6 42 22 268 42 333 12 37 23 54 38 59 12 3 43 22 69 41 40 29
56 52 107 156 75 151 91 211 98 361 6 124 -3 205 -37 317 l-19 60 50 145 c52
153 105 279 150 354 40 67 63 150 54 196 -10 56 -66 106 -142 127 -80 23 -94
22 -196 -17 -93 -36 -92 -36 -99 21 -4 29 -1 33 46 55 63 28 120 79 158 137
23 36 28 56 28 104 0 55 -3 62 -34 92 -22 21 -49 35 -76 39 -57 9 -127 46
-185 98 l-48 44 71 117 c86 144 114 212 120 298 3 53 0 74 -17 106 -25 50 -77
94 -151 131 -50 24 -60 35 -100 107 -45 79 -203 298 -234 324 -22 18 -21 35
14 231 17 93 30 174 30 180 0 5 7 10 16 10 25 0 3 22 -65 64 -49 30 -68 36
-113 36 -89 0 -203 -42 -304 -111 l-41 -28 -60 24 c-32 13 -99 31 -148 40 -49
8 -90 16 -91 18 -2 1 -7 171 -12 377 -6 253 -6 379 1 388 5 7 8 14 6 16 -2 1
-52 14 -111 28 l-107 25 -58 -33 c-129 -73 -281 -228 -389 -399 -26 -41 -51
-75 -55 -75 -3 0 -9 8 -12 18 -54 194 -60 228 -93 527 -26 242 -83 462 -144
559 -123 194 -343 335 -547 353 -232 19 -432 -116 -565 -382 -50 -100 -71
-170 -128 -440 -28 -132 -69 -292 -91 -355 -86 -248 -92 -260 -104 -219 -14
46 -95 167 -140 208 -137 126 -259 105 -307 -53 -42 -142 -201 -338 -327 -405
-137 -73 -276 -44 -444 91 -19 15 -30 19 -35 12 -4 -6 -17 -15 -30 -19 -13 -4
-39 -20 -58 -37 -41 -37 -43 -59 -11 -203 l22 -99 -89 -91 c-49 -49 -120 -127
-159 -173 -38 -46 -73 -79 -78 -75 -4 4 -24 64 -44 133 -20 69 -63 211 -95
315 -84 275 -114 414 -104 472 10 55 4 53 204 77 160 19 230 25 307 26 l62 0
76 95 76 95 -26 96 c-21 75 -24 98 -15 110 15 17 52 18 67 3 9 -9 41 -4 125
19 226 63 506 123 823 177 197 34 205 35 205 44 0 21 -302 141 -455 181 -111
29 -325 52 -410 45 -220 -18 -372 -56 -406 -99 -39 -49 -59 -33 -93 74 l-31
95 -111 38 -112 38 -78 -48 c-158 -98 -314 -175 -454 -224 -52 -18 -56 -19
-67 -2 -18 23 -16 78 2 93 8 7 15 18 15 24 0 7 -51 109 -114 227 -220 416
-267 504 -294 557 -34 67 -62 72 -62 11z m5163 -4887 c-16 -63 -36 -80 -47
-39 -14 53 -7 76 27 91 17 7 33 13 34 12 1 -1 -5 -30 -14 -64z m-3348 -193
c-11 -51 2 -99 32 -110 18 -7 24 -14 19 -27 -3 -9 -15 -46 -27 -82 -12 -36
-28 -79 -35 -97 -8 -17 -14 -39 -14 -50 0 -10 -4 -25 -10 -33 -8 -13 -10 -13
-14 0 -8 23 -96 338 -96 343 0 3 17 11 38 18 20 6 53 24 72 40 19 16 36 28 38
29 2 0 1 -14 -3 -31z"/>
</g>
</svg>
